<svg width="20" height="20" viewBox="0 0 20 20" fill="none" xmlns="http://www.w3.org/2000/svg">
<g clip-path="url(#clip0_4036_747)">
<path fill-rule="evenodd" clip-rule="evenodd" d="M16.8695 10.7874C16.9785 10.7465 17.0729 10.6742 17.1408 10.5797C17.2088 10.4852 17.2472 10.3727 17.2514 10.2564C17.2555 10.1401 17.2251 10.0252 17.164 9.92611C17.1029 9.82705 17.0138 9.74829 16.908 9.69977L7.0599 5.17646C6.9544 5.12799 6.83694 5.11175 6.72224 5.12978C6.60755 5.14781 6.50074 5.19931 6.4152 5.27782C6.32967 5.35632 6.26922 5.45834 6.24144 5.57107C6.21366 5.6838 6.2198 5.80222 6.25907 5.91148L7.61689 9.69298C7.66799 9.83538 7.66238 9.99197 7.60123 10.1304L5.97655 13.8051C5.92957 13.9113 5.91499 14.029 5.93463 14.1434C5.95428 14.2578 6.00728 14.3639 6.08698 14.4483C6.16669 14.5327 6.26955 14.5917 6.38266 14.6179C6.49577 14.6441 6.61409 14.6363 6.72279 14.5955L16.8695 10.7874Z" fill="#B39B6F"/>
</g>
<defs>
<clipPath id="clip0_4036_747">
<rect width="14.1472" height="14.1472" fill="white" transform="translate(19.9944 10.355) rotate(137.05)"/>
</clipPath>
</defs>
</svg>
