<svg width="25" height="25" viewBox="0 0 25 25" fill="none" xmlns="http://www.w3.org/2000/svg">
<rect x="0.25" y="0.25" width="24.5" height="24.5" rx="3.75" fill="white"/>
<rect x="0.25" y="0.25" width="24.5" height="24.5" rx="3.75" stroke="#3D5441" stroke-width="0.5"/>
<path d="M11.8749 16.25H9.96301C9.77738 15.4544 8.93988 14.8037 8.59613 14.375C8.0075 13.6395 7.6386 12.7528 7.53192 11.8168C7.42525 10.8809 7.58513 9.93386 7.99317 9.08482C8.4012 8.23578 9.04078 7.51928 9.83823 7.01785C10.6357 6.51642 11.5586 6.25046 12.5006 6.25061C13.4426 6.25076 14.3654 6.51702 15.1626 7.0187C15.9599 7.52039 16.5993 8.2371 17.007 9.08627C17.4148 9.93544 17.5744 10.8825 17.4674 11.8184C17.3604 12.7543 16.9912 13.641 16.4024 14.3762C16.0586 14.8044 15.2224 15.455 15.0368 16.25H13.1249V13.125H11.8749V16.25ZM14.9999 17.5V18.125C14.9999 18.4565 14.8682 18.7744 14.6338 19.0089C14.3993 19.2433 14.0814 19.375 13.7499 19.375H11.2499C10.9184 19.375 10.6004 19.2433 10.366 19.0089C10.1316 18.7744 9.99988 18.4565 9.99988 18.125V17.5H14.9999Z" fill="#3D5441"/>
</svg>
