<svg width="25" height="25" viewBox="0 0 25 25" fill="none" xmlns="http://www.w3.org/2000/svg">
<rect x="0.25" y="0.25" width="24.5" height="24.5" rx="3.75" fill="white"/>
<rect x="0.25" y="0.25" width="24.5" height="24.5" rx="3.75" stroke="#3D5441" stroke-width="0.5"/>
<path d="M12.2672 7.26133C12.2342 7.22279 12.1932 7.19184 12.1471 7.17063C12.101 7.14941 12.0509 7.13843 12.0001 7.13843C11.9494 7.13843 11.8993 7.14941 11.8532 7.17063C11.8071 7.19184 11.7661 7.22279 11.7331 7.26133C10.8056 8.34619 7.78125 12.0968 7.78125 14.875C7.78125 17.464 9.41133 19.0938 12 19.0938C14.5887 19.0938 16.2188 17.464 16.2188 14.875C16.2188 12.0968 13.1944 8.34619 12.2672 7.26133ZM12.4688 17.5703C12.4124 17.5704 12.3569 17.557 12.3069 17.5312C12.2568 17.5054 12.2137 17.468 12.1812 17.422C12.1486 17.3761 12.1275 17.323 12.1198 17.2672C12.112 17.2115 12.1178 17.1547 12.1365 17.1016C12.1605 17.0323 12.2057 16.9724 12.2657 16.9303C12.3257 16.8882 12.3975 16.8661 12.4708 16.8672C12.9361 16.8662 13.3821 16.6809 13.7112 16.3518C14.0403 16.0228 14.2256 15.5768 14.2266 15.1114C14.2255 15.0381 14.2476 14.9664 14.2896 14.9064C14.3317 14.8463 14.3917 14.8011 14.4609 14.7772C14.514 14.7584 14.5708 14.7526 14.6266 14.7604C14.6824 14.7682 14.7355 14.7892 14.7814 14.8218C14.8274 14.8543 14.8648 14.8975 14.8906 14.9475C14.9164 14.9976 14.9298 15.0531 14.9297 15.1094C14.929 15.7618 14.6695 16.3874 14.2081 16.8488C13.7468 17.3101 13.1212 17.5696 12.4688 17.5703Z" fill="#3D5441"/>
</svg>
