<svg width="25" height="25" viewBox="0 0 25 25" fill="none" xmlns="http://www.w3.org/2000/svg">
<rect x="0.25" y="0.25" width="24.5" height="24.5" rx="3.75" fill="white"/>
<rect x="0.25" y="0.25" width="24.5" height="24.5" rx="3.75" stroke="#3D5441" stroke-width="0.5"/>
<path fill-rule="evenodd" clip-rule="evenodd" d="M10.625 9.375C10.625 8.87772 10.8225 8.40081 11.1742 8.04917C11.5258 7.69754 12.0027 7.5 12.5 7.5C12.9973 7.5 13.4742 7.69754 13.8258 8.04917C14.1775 8.40081 14.375 8.87772 14.375 9.375V10.625H10.625V9.375ZM9.375 10.625V9.375C9.375 8.5462 9.70424 7.75134 10.2903 7.16529C10.8763 6.57924 11.6712 6.25 12.5 6.25C13.3288 6.25 14.1237 6.57924 14.7097 7.16529C15.2958 7.75134 15.625 8.5462 15.625 9.375V10.625H16.875C17.0408 10.625 17.1997 10.6908 17.3169 10.8081C17.4342 10.9253 17.5 11.0842 17.5 11.25V16.875C17.5 17.3723 17.3025 17.8492 16.9508 18.2008C16.5992 18.5525 16.1223 18.75 15.625 18.75H9.375C8.87772 18.75 8.40081 18.5525 8.04917 18.2008C7.69754 17.8492 7.5 17.3723 7.5 16.875V11.25C7.5 11.0842 7.56585 10.9253 7.68306 10.8081C7.80027 10.6908 7.95924 10.625 8.125 10.625H9.375ZM13.125 14.6875C13.125 14.4389 13.2238 14.2004 13.3996 14.0246C13.5754 13.8488 13.8139 13.75 14.0625 13.75H14.0688C14.3174 13.75 14.5558 13.8488 14.7317 14.0246C14.9075 14.2004 15.0063 14.4389 15.0063 14.6875V14.6938C15.0063 14.9424 14.9075 15.1808 14.7317 15.3567C14.5558 15.5325 14.3174 15.6313 14.0688 15.6313H14.0625C13.8139 15.6313 13.5754 15.5325 13.3996 15.3567C13.2238 15.1808 13.125 14.9424 13.125 14.6938V14.6875Z" fill="#3D5441"/>
</svg>
