<svg width="25" height="25" viewBox="0 0 25 25" fill="none" xmlns="http://www.w3.org/2000/svg">
<g clip-path="url(#clip0_2075_320)">
<rect width="25" height="25" rx="4" fill="#3D5441"/>
<g clip-path="url(#clip1_2075_320)">
<g clip-path="url(#clip2_2075_320)">
<rect width="25" height="25" fill="#4D3302"/>
<path d="M25 0H0V25H25V0Z" fill="white"/>
<path d="M10.9646 16.8479C10.6826 16.5659 10.5417 16.2208 10.5417 15.8125C10.5417 15.4041 10.6826 15.059 10.9646 14.777C11.2465 14.4951 11.5917 14.3541 12 14.3541C12.4083 14.3541 12.7535 14.4951 13.0354 14.777C13.3174 15.059 13.4583 15.4041 13.4583 15.8125C13.4583 16.2208 13.3174 16.5659 13.0354 16.8479C12.7535 17.1298 12.4083 17.2708 12 17.2708C11.5917 17.2708 11.2465 17.1298 10.9646 16.8479ZM8.70417 13.975L7.47917 12.7208C8.05278 12.1472 8.72614 11.6928 9.49925 11.3575C10.2724 11.0223 11.1059 10.8545 12 10.8541C12.8941 10.8537 13.7278 11.0239 14.5013 11.3645C15.2748 11.7052 15.948 12.167 16.5208 12.75L15.2958 13.975C14.8681 13.5472 14.3722 13.2118 13.8083 12.9687C13.2444 12.7257 12.6417 12.6041 12 12.6041C11.3583 12.6041 10.7556 12.7257 10.1917 12.9687C9.62778 13.2118 9.13194 13.5472 8.70417 13.975ZM6.225 11.4958L5 10.2708C5.89444 9.3569 6.93958 8.64232 8.13542 8.12704C9.33125 7.61176 10.6194 7.35413 12 7.35413C13.3806 7.35413 14.6687 7.61176 15.8646 8.12704C17.0604 8.64232 18.1056 9.3569 19 10.2708L17.775 11.4958C17.0264 10.7472 16.1588 10.1615 15.1722 9.73879C14.1856 9.31607 13.1282 9.10451 12 9.10413C10.8718 9.10374 9.81464 9.31529 8.82842 9.73879C7.84219 10.1623 6.97439 10.748 6.225 11.4958Z" fill="#3D5441"/>
</g>
</g>
</g>
<rect x="0.25" y="0.25" width="24.5" height="24.5" rx="3.75" stroke="#3D5441" stroke-width="0.5"/>
<defs>
<clipPath id="clip0_2075_320">
<rect width="25" height="25" rx="4" fill="white"/>
</clipPath>
<clipPath id="clip1_2075_320">
<rect width="25" height="25" fill="white"/>
</clipPath>
<clipPath id="clip2_2075_320">
<rect width="25" height="25" fill="white"/>
</clipPath>
</defs>
</svg>
