<svg width="25" height="25" viewBox="0 0 25 25" fill="none" xmlns="http://www.w3.org/2000/svg">
<rect x="0.25" y="0.25" width="24.5" height="24.5" rx="3.75" fill="white"/>
<rect x="0.25" y="0.25" width="24.5" height="24.5" rx="3.75" stroke="#3D5441" stroke-width="0.5"/>
<path d="M16.2734 11.9667C16.12 11.7667 15.9334 11.5933 15.76 11.42C15.3134 11.02 14.8067 10.7333 14.38 10.3133C13.3867 9.34 13.1667 7.73333 13.8 6.5C13.1667 6.65333 12.6134 7 12.14 7.38C10.4134 8.76667 9.73337 11.2133 10.5467 13.3133C10.5734 13.38 10.6 13.4467 10.6 13.5333C10.6 13.68 10.5 13.8133 10.3667 13.8667C10.2134 13.9333 10.0534 13.8933 9.9267 13.7867C9.88886 13.755 9.85722 13.7165 9.83337 13.6733C9.08003 12.72 8.96003 11.3533 9.4667 10.26C8.35337 11.1667 7.7467 12.7 7.83337 14.1467C7.87337 14.48 7.91337 14.8133 8.0267 15.1467C8.12003 15.5467 8.30003 15.9467 8.50003 16.3C9.22003 17.4533 10.4667 18.28 11.8067 18.4467C13.2334 18.6267 14.76 18.3667 15.8534 17.38C17.0734 16.2733 17.5 14.5 16.8734 12.98L16.7867 12.8067C16.6467 12.5 16.2734 11.9667 16.2734 11.9667ZM14.1667 16.1667C13.98 16.3267 13.6734 16.5 13.4334 16.5667C12.6867 16.8333 11.94 16.46 11.5 16.02C12.2934 15.8333 12.7667 15.2467 12.9067 14.6533C13.02 14.12 12.8067 13.68 12.72 13.1667C12.64 12.6733 12.6534 12.2533 12.8334 11.7933C12.96 12.0467 13.0934 12.3 13.2534 12.5C13.7667 13.1667 14.5734 13.46 14.7467 14.3667C14.7734 14.46 14.7867 14.5533 14.7867 14.6533C14.8067 15.2 14.5667 15.8 14.1667 16.1667Z" fill="#3D5441"/>
</svg>
