<svg width="25" height="25" viewBox="0 0 25 25" fill="none" xmlns="http://www.w3.org/2000/svg">
<rect width="25" height="25" rx="4" fill="#3D5441"/>
<path d="M17.5 12.5H18.75V13.75H17.5C16.6375 13.75 15.7875 13.5312 15 13.125C13.4375 13.9375 11.5625 13.9375 10 13.125C9.2125 13.5312 8.35625 13.75 7.5 13.75H6.25V12.5H7.5C8.36875 12.5 9.2375 12.2062 10 11.6687C11.525 12.7375 13.475 12.7375 15 11.6687C15.7625 12.2062 16.6313 12.5 17.5 12.5ZM17.5 8.74995H18.75V9.99995H17.5C16.6375 9.99995 15.7875 9.7812 15 9.37495C13.4375 10.1875 11.5625 10.1875 10 9.37495C9.2125 9.7812 8.35625 9.99995 7.5 9.99995H6.25V8.74995H7.5C8.36875 8.74995 9.2375 8.4562 10 7.9187C11.525 8.98745 13.475 8.98745 15 7.9187C15.7625 8.4562 16.6313 8.74995 17.5 8.74995ZM17.5 16.25H18.75V17.5H17.5C16.6375 17.5 15.7875 17.2812 15 16.875C13.4375 17.6875 11.5625 17.6875 10 16.875C9.2125 17.2812 8.35625 17.5 7.5 17.5H6.25V16.25H7.5C8.36875 16.25 9.2375 15.9562 10 15.4187C11.525 16.4875 13.475 16.4875 15 15.4187C15.7625 15.9562 16.6313 16.25 17.5 16.25Z" fill="white"/>
</svg>
