<svg width="25" height="25" viewBox="0 0 25 25" fill="none" xmlns="http://www.w3.org/2000/svg">
<rect width="25" height="25" rx="4" fill="#3D5441"/>
<path fill-rule="evenodd" clip-rule="evenodd" d="M13.5271 18.3658C15.4197 16.1565 17.8125 13.3628 17.8125 10.8504C17.8125 7.84987 15.4339 5.41675 12.5 5.41675C9.56608 5.41675 7.1875 7.84987 7.1875 10.8504C7.1875 13.3628 9.58025 16.1565 11.4729 18.3658C11.8412 18.7965 12.1912 19.2037 12.5 19.5834C12.8088 19.2037 13.1587 18.7965 13.5271 18.3658ZM12.5 12.5001C12.7558 12.5001 13.0091 12.4497 13.2454 12.3518C13.4818 12.2539 13.6965 12.1104 13.8774 11.9296C14.0583 11.7487 14.2017 11.5339 14.2996 11.2976C14.3975 11.0613 14.4479 10.808 14.4479 10.5522C14.4479 10.2964 14.3975 10.0431 14.2996 9.80673C14.2017 9.5704 14.0583 9.35566 13.8774 9.17478C13.6965 8.9939 13.4818 8.85042 13.2454 8.75252C13.0091 8.65463 12.7558 8.60425 12.5 8.60425C11.9834 8.60425 11.4879 8.80947 11.1226 9.17478C10.7573 9.54008 10.5521 10.0355 10.5521 10.5522C10.5521 11.0688 10.7573 11.5642 11.1226 11.9296C11.4879 12.2949 11.9834 12.5001 12.5 12.5001Z" fill="white"/>
</svg>
