<svg width="25" height="25" viewBox="0 0 25 25" fill="none" xmlns="http://www.w3.org/2000/svg">
<rect width="25" height="25" rx="4" fill="#3D5441"/>
<path d="M16.2504 9.37476C16.2504 9.53851 16.24 9.69976 16.2191 9.85851C17.0383 10.3186 17.6548 11.0694 17.9469 11.9623C18.239 12.8553 18.1852 13.8253 17.7963 14.6805C17.4073 15.5357 16.7115 16.2138 15.8466 16.5806C14.9816 16.9473 14.0105 16.976 13.1254 16.661V18.7498H11.8754V16.4998C11.1549 16.8678 10.3276 16.97 9.53923 16.7882C8.75084 16.6064 8.05183 16.1524 7.56522 15.506C7.07862 14.8596 6.83561 14.0623 6.87896 13.2544C6.92232 12.4465 7.24926 11.6797 7.80224 11.0891C8.04648 11.7578 8.43067 12.3666 8.92912 12.8748L9.82162 11.9998C9.13478 11.2987 8.75018 10.3562 8.75037 9.37476C8.75037 8.38019 9.14546 7.42637 9.84872 6.72311C10.552 6.01984 11.5058 5.62476 12.5004 5.62476C13.4949 5.62476 14.4488 6.01984 15.152 6.72311C15.8553 7.42637 16.2504 8.38019 16.2504 9.37476Z" fill="white"/>
</svg>
