<svg width="24" height="24" viewBox="0 0 24 24" fill="none" xmlns="http://www.w3.org/2000/svg">
<path d="M12.5 7.5C13.163 7.5 13.7989 7.76339 14.2678 8.23223C14.7366 8.70107 15 9.33696 15 10C15 10.663 14.7366 11.2989 14.2678 11.7678C13.7989 12.2366 13.163 12.5 12.5 12.5C11.837 12.5 11.2011 12.2366 10.7322 11.7678C10.2634 11.2989 10 10.663 10 10C10 9.33696 10.2634 8.70107 10.7322 8.23223C11.2011 7.76339 11.837 7.5 12.5 7.5ZM12.5 13.75C15.2625 13.75 17.5 14.8688 17.5 16.25V17.5H7.5V16.25C7.5 14.8688 9.7375 13.75 12.5 13.75Z" fill="#353535"/>
</svg>
