<svg width="24" height="24" viewBox="0 0 24 24" fill="none" xmlns="http://www.w3.org/2000/svg">
<g clip-path="url(#clip0_2075_293)">
<g clip-path="url(#clip1_2075_293)">
<path fill-rule="evenodd" clip-rule="evenodd" d="M15.8886 7.40248C16.0121 7.35047 16.1474 7.33254 16.2802 7.35054C16.413 7.36853 16.5387 7.42181 16.6439 7.50482C16.7492 7.58783 16.8303 7.69754 16.8787 7.82252C16.9272 7.9475 16.9413 8.0832 16.9196 8.21548L15.7856 15.094C15.6756 15.7575 14.9475 16.138 14.3391 15.8075C13.83 15.5309 13.0741 15.1049 12.3941 14.6605C12.0541 14.438 11.0126 13.7255 11.1406 13.2185C11.2506 12.785 13.0006 11.156 14.0006 10.1875C14.3931 9.80698 14.214 9.58748 13.7505 9.93748C12.5996 10.8065 10.7516 12.128 10.1406 12.5C9.60157 12.8279 9.32057 12.884 8.98457 12.8279C8.37157 12.7259 7.80307 12.568 7.33907 12.3755C6.71207 12.1155 6.74257 11.2535 7.33857 11.0025L15.8886 7.40248Z" fill="#353535"/>
</g>
</g>
<defs>
<clipPath id="clip0_2075_293">
<rect width="12" height="12.75" fill="white" transform="translate(6 5)"/>
</clipPath>
<clipPath id="clip1_2075_293">
<rect width="12" height="12.75" fill="white" transform="translate(6 5)"/>
</clipPath>
</defs>
</svg>
