<svg width="24" height="24" viewBox="0 0 24 24" fill="none" xmlns="http://www.w3.org/2000/svg">
<path fill-rule="evenodd" clip-rule="evenodd" d="M12.1592 9.45811C10.8509 9.3895 9.82995 10.2973 9.60483 11.7182C9.41839 12.8948 9.74894 14.3286 10.0317 14.4007C10.1516 14.4313 10.4402 14.2106 10.6501 14.0126C10.6896 13.9754 10.7493 13.9691 10.7956 13.9974C11.1229 14.1976 11.4934 14.348 11.9019 14.3694C13.245 14.4398 14.4352 13.3887 14.5056 12.0455C14.5759 10.7023 13.5022 9.52854 12.1592 9.45811ZM9.96836 16.2794C9.91771 16.2436 9.84792 16.2533 9.80547 16.2986C9.23807 16.9037 7.78594 17.3282 7.71942 16.5023C7.71942 15.8551 7.57407 15.3098 7.41403 14.7094C7.21803 13.974 7 13.156 7 11.9671C7 9.13207 9.32507 7 12.0818 7C14.8386 7 17 9.23617 17 11.9946C17 14.7531 14.7698 16.9342 12.1079 16.9342C11.1635 16.9342 10.7053 16.8012 9.96836 16.2794Z" fill="#353535"/>
</svg>
