<svg width="7" height="9" viewBox="0 0 7 9" fill="none" xmlns="http://www.w3.org/2000/svg">
<path fill-rule="evenodd" clip-rule="evenodd" d="M3.72917 7.61708C4.8425 6.3175 6.25 4.67417 6.25 3.19625C6.25 1.43125 4.85083 0 3.125 0C1.39917 0 0 1.43125 0 3.19625C0 4.67417 1.4075 6.3175 2.52083 7.61708C2.7375 7.87042 2.94333 8.11 3.125 8.33333C3.30667 8.11 3.5125 7.87042 3.72917 7.61708ZM3.125 4.16667C3.27547 4.16667 3.42447 4.13703 3.56349 4.07945C3.70251 4.02186 3.82883 3.93746 3.93523 3.83106C4.04163 3.72466 4.12603 3.59834 4.18361 3.45933C4.2412 3.32031 4.27083 3.17131 4.27083 3.02083C4.27083 2.87036 4.2412 2.72136 4.18361 2.58234C4.12603 2.44332 4.04163 2.31701 3.93523 2.21061C3.82883 2.10421 3.70251 2.0198 3.56349 1.96222C3.42447 1.90464 3.27547 1.875 3.125 1.875C2.82111 1.875 2.52966 1.99572 2.31477 2.21061C2.09989 2.42549 1.97917 2.71694 1.97917 3.02083C1.97917 3.32473 2.09989 3.61617 2.31477 3.83106C2.52966 4.04595 2.82111 4.16667 3.125 4.16667Z" fill="white"/>
</svg>
