<svg width="20" height="20" viewBox="0 0 20 20" fill="none" xmlns="http://www.w3.org/2000/svg">
<path fill-rule="evenodd" clip-rule="evenodd" d="M4.55876 4.55827C4.67595 4.44123 4.8348 4.37549 5.00043 4.37549C5.16605 4.37549 5.32491 4.44123 5.44209 4.55827L15.4421 14.5583C15.5035 14.6155 15.5528 14.6845 15.5869 14.7612C15.6211 14.8378 15.6394 14.9206 15.6409 15.0045C15.6424 15.0884 15.627 15.1718 15.5955 15.2496C15.5641 15.3274 15.5173 15.3981 15.458 15.4575C15.3986 15.5168 15.3279 15.5636 15.2501 15.595C15.1723 15.6265 15.0889 15.6419 15.005 15.6404C14.9211 15.6389 14.8383 15.6206 14.7616 15.5864C14.685 15.5523 14.616 15.503 14.5588 15.4416L4.55876 5.44161C4.44172 5.32442 4.37598 5.16556 4.37598 4.99994C4.37598 4.83431 4.44172 4.67546 4.55876 4.55827Z" fill="#3D5441"/>
<path fill-rule="evenodd" clip-rule="evenodd" d="M15.4419 4.55827C15.559 4.67546 15.6247 4.83431 15.6247 4.99994C15.6247 5.16556 15.559 5.32442 15.4419 5.44161L5.44195 15.4416C5.32347 15.552 5.16676 15.6121 5.00484 15.6093C4.84293 15.6064 4.68844 15.5408 4.57393 15.4263C4.45942 15.3118 4.39382 15.1573 4.39097 14.9954C4.38811 14.8335 4.44821 14.6768 4.55861 14.5583L14.5586 4.55827C14.6758 4.44123 14.8347 4.37549 15.0003 4.37549C15.1659 4.37549 15.3248 4.44123 15.4419 4.55827Z" fill="#3D5441"/>
</svg>
