<svg width="20" height="20" viewBox="0 0 20 20" fill="none" xmlns="http://www.w3.org/2000/svg">
<rect width="20" height="20" rx="1.66667" fill="#3D5441"/>
<path fill-rule="evenodd" clip-rule="evenodd" d="M5.46531 5.46543C5.56296 5.36789 5.69534 5.31311 5.83336 5.31311C5.97138 5.31311 6.10376 5.36789 6.20142 5.46543L14.5348 13.7988C14.5859 13.8464 14.627 13.9039 14.6554 13.9678C14.6839 14.0317 14.6992 14.1007 14.7004 14.1706C14.7017 14.2406 14.6888 14.31 14.6626 14.3749C14.6364 14.4397 14.5974 14.4986 14.548 14.5481C14.4985 14.5976 14.4396 14.6365 14.3747 14.6627C14.3099 14.6889 14.2404 14.7018 14.1705 14.7006C14.1006 14.6993 14.0316 14.684 13.9677 14.6556C13.9038 14.6271 13.8463 14.586 13.7986 14.5349L5.46531 6.20154C5.36777 6.10388 5.31299 5.97151 5.31299 5.83349C5.31299 5.69546 5.36777 5.56309 5.46531 5.46543Z" fill="white"/>
<path fill-rule="evenodd" clip-rule="evenodd" d="M14.5349 5.46543C14.6325 5.56309 14.6872 5.69546 14.6872 5.83349C14.6872 5.97151 14.6325 6.10388 14.5349 6.20154L6.20158 14.5349C6.10285 14.6269 5.97226 14.677 5.83733 14.6746C5.7024 14.6722 5.57366 14.6175 5.47823 14.5221C5.38281 14.4267 5.32815 14.2979 5.32576 14.163C5.32338 14.0281 5.37347 13.8975 5.46547 13.7988L13.7988 5.46543C13.8965 5.36789 14.0288 5.31311 14.1669 5.31311C14.3049 5.31311 14.4373 5.36789 14.5349 5.46543Z" fill="white"/>
</svg>
