<svg width="25" height="25" viewBox="0 0 25 25" fill="none" xmlns="http://www.w3.org/2000/svg">
<rect width="25" height="25" rx="4" fill="#3D5441"/>
<path d="M15.334 11.791C16.5098 11.791 17.4519 10.8418 17.4519 9.66602C17.4519 8.49018 16.5098 7.54102 15.334 7.54102C14.1582 7.54102 13.209 8.49018 13.209 9.66602C13.209 10.8418 14.1582 11.791 15.334 11.791ZM9.66732 11.791C10.8432 11.791 11.7852 10.8418 11.7852 9.66602C11.7852 8.49018 10.8432 7.54102 9.66732 7.54102C8.49148 7.54102 7.54232 8.49018 7.54232 9.66602C7.54232 10.8418 8.49148 11.791 9.66732 11.791ZM9.66732 13.2077C8.0169 13.2077 4.70898 14.0364 4.70898 15.6868V17.4577H14.6257V15.6868C14.6257 14.0364 11.3177 13.2077 9.66732 13.2077ZM15.334 13.2077C15.1286 13.2077 14.8948 13.2218 14.6469 13.2431C15.4686 13.8381 16.0423 14.6385 16.0423 15.6868V17.4577H20.2923V15.6868C20.2923 14.0364 16.9844 13.2077 15.334 13.2077Z" fill="white"/>
</svg>
