<svg width="25" height="25" viewBox="0 0 25 25" fill="none" xmlns="http://www.w3.org/2000/svg">
<rect width="25" height="25" rx="4" fill="#3D5441"/>
<path d="M12.5 10C12.5 10 12.5 10 12.975 9.375C13.525 8.65 14.3375 8.125 15.3125 8.125C16.8687 8.125 18.125 9.38125 18.125 10.9375C18.125 11.5187 17.95 12.0563 17.65 12.5C17.1438 13.2562 12.5 18.125 12.5 18.125C12.5 18.125 7.85625 13.2562 7.35 12.5C7.05 12.0563 6.875 11.5187 6.875 10.9375C6.875 9.38125 8.13125 8.125 9.6875 8.125C10.6625 8.125 11.4812 8.65 12.025 9.375C12.5 10 12.5 10 12.5 10Z" fill="white"/>
<path d="M12.5 10C12.5 10 12.5 10 12.025 9.375C11.475 8.65 10.6625 8.125 9.6875 8.125C8.13125 8.125 6.875 9.38125 6.875 10.9375C6.875 11.5188 7.05 12.0563 7.35 12.5C7.85625 13.2563 12.5 18.125 12.5 18.125M12.5 10C12.5 10 12.5 10 12.975 9.375C13.525 8.65 14.3375 8.125 15.3125 8.125C16.8688 8.125 18.125 9.38125 18.125 10.9375C18.125 11.5188 17.95 12.0563 17.65 12.5C17.1437 13.2563 12.5 18.125 12.5 18.125" stroke="white" stroke-width="1.25" stroke-linecap="round" stroke-linejoin="round"/>
</svg>
