<svg width="25" height="25" viewBox="0 0 25 25" fill="none" xmlns="http://www.w3.org/2000/svg">
<rect width="25" height="25" rx="4" fill="#3D5441"/>
<path fill-rule="evenodd" clip-rule="evenodd" d="M11.7721 7.12514C12.0425 6.96151 12.3525 6.875 12.6686 6.875C12.9846 6.875 13.2946 6.96151 13.565 7.12514L14.2015 7.51452C15.0946 8.06045 16.1118 8.18202 17.1337 8.30452C17.464 8.3442 17.7946 8.38358 18.1218 8.43764C18.1218 8.43764 18.129 9.01077 18.1215 9.27077L18.0562 11.5055C18 13.422 17.1478 15.2392 15.6859 16.5598C14.9962 17.1826 14.2828 17.7455 13.4631 18.213C13.2215 18.3495 12.9506 18.4261 12.6733 18.4362C12.396 18.4464 12.1203 18.3899 11.8693 18.2714C10.9228 17.8214 10.0846 17.2508 9.31933 16.5598C7.85746 15.2392 7.00527 13.422 6.94933 11.5055L6.88433 9.27795C6.87652 9.0142 6.88433 8.43764 6.88433 8.43764C7.14996 8.40639 7.42058 8.38045 7.69339 8.35452C8.89746 8.24014 10.1415 8.12202 11.1621 7.49827L11.7721 7.12514ZM11.875 11.8751V9.68764H13.125V11.8751H15.3125V13.1251H13.125V15.3126H11.875V13.1251H9.68746V11.8751H11.875Z" fill="white"/>
</svg>
