<svg width="32" height="32" viewBox="0 0 32 32" fill="none" xmlns="http://www.w3.org/2000/svg">
<rect width="31.3559" height="31.3559" rx="5.01695" fill="white"/>
<path d="M18.6667 8.55273C19.0661 8.55261 19.4509 8.70347 19.7438 8.97509C20.0367 9.2467 20.2161 9.61899 20.246 10.0173L20.25 10.1361V14.0944H21.4375C21.7327 14.0944 22.0173 14.2044 22.2358 14.4028C22.4544 14.6013 22.5911 14.8741 22.6195 15.1679L22.625 15.2819V21.2194C22.625 21.8252 22.3936 22.4081 21.978 22.8489C21.5624 23.2896 20.9941 23.5549 20.3893 23.5904L20.25 23.5944H9.95833C9.55888 23.5945 9.17413 23.4437 8.88123 23.172C8.58833 22.9004 8.40892 22.5281 8.37896 22.1298L8.375 22.0111V10.1361C8.37487 9.73661 8.52574 9.35187 8.79735 9.05897C9.06897 8.76607 9.44125 8.58665 9.83958 8.55669L9.95833 8.55273H18.6667ZM21.0417 15.6777H20.25V22.0111C20.46 22.0111 20.6613 21.9277 20.8098 21.7792C20.9583 21.6307 21.0417 21.4294 21.0417 21.2194V15.6777ZM14.7083 16.4694H12.3333C12.1316 16.4696 11.9375 16.5469 11.7908 16.6854C11.644 16.8239 11.5557 17.0132 11.5439 17.2147C11.5321 17.4161 11.5976 17.6145 11.7271 17.7692C11.8566 17.9239 12.0403 18.0234 12.2407 18.0472L12.3333 18.0527H14.7083C14.9101 18.0525 15.1042 17.9752 15.2509 17.8367C15.3976 17.6982 15.4859 17.5089 15.4978 17.3075C15.5096 17.106 15.444 16.9077 15.3145 16.753C15.185 16.5982 15.0013 16.4988 14.801 16.4749L14.7083 16.4694ZM16.2917 12.5111H12.3333C12.1234 12.5111 11.922 12.5945 11.7735 12.7429C11.6251 12.8914 11.5417 13.0928 11.5417 13.3027C11.5417 13.5127 11.6251 13.7141 11.7735 13.8625C11.922 14.011 12.1234 14.0944 12.3333 14.0944H16.2917C16.5016 14.0944 16.703 14.011 16.8515 13.8625C16.9999 13.7141 17.0833 13.5127 17.0833 13.3027C17.0833 13.0928 16.9999 12.8914 16.8515 12.7429C16.703 12.5945 16.5016 12.5111 16.2917 12.5111Z" fill="#3D5441"/>
</svg>
