<svg width="32" height="32" viewBox="0 0 32 32" fill="none" xmlns="http://www.w3.org/2000/svg">
<rect width="31.3559" height="31.3559" rx="5.01695" fill="white"/>
<path d="M8.125 20.3965C8.125 20.9186 8.33242 21.4194 8.70163 21.7886C9.07085 22.1578 9.57161 22.3652 10.0938 22.3652H21.9062C22.4284 22.3652 22.9292 22.1578 23.2984 21.7886C23.6676 21.4194 23.875 20.9186 23.875 20.3965V14.9824H8.125V20.3965ZM10.4453 17.7246C10.4453 17.4449 10.5564 17.1766 10.7542 16.9788C10.952 16.781 11.2203 16.6699 11.5 16.6699H13.1875C13.4672 16.6699 13.7355 16.781 13.9333 16.9788C14.1311 17.1766 14.2422 17.4449 14.2422 17.7246V18.4277C14.2422 18.7075 14.1311 18.9757 13.9333 19.1735C13.7355 19.3713 13.4672 19.4824 13.1875 19.4824H11.5C11.2203 19.4824 10.952 19.3713 10.7542 19.1735C10.5564 18.9757 10.4453 18.7075 10.4453 18.4277V17.7246ZM21.9062 9.99023H10.0938C9.57161 9.99023 9.07085 10.1977 8.70163 10.5669C8.33242 10.9361 8.125 11.4368 8.125 11.959V12.873H23.875V11.959C23.875 11.4368 23.6676 10.9361 23.2984 10.5669C22.9292 10.1977 22.4284 9.99023 21.9062 9.99023Z" fill="#3D5441"/>
</svg>
