<svg width="32" height="32" viewBox="0 0 32 32" fill="none" xmlns="http://www.w3.org/2000/svg">
<rect width="31.3559" height="31.3559" rx="5.01695" fill="white"/>
<path d="M6.87492 15.6777C5.82075 15.6777 4.95825 14.8152 4.95825 13.7611V8.9694C4.95825 7.91523 5.82075 7.05273 6.87492 7.05273H14.5416C15.5958 7.05273 16.4583 7.91523 16.4583 8.9694V13.7611C16.4583 14.8152 15.5958 15.6777 14.5416 15.6777H12.6249V18.5527L9.74992 15.6777H6.87492ZM24.1249 21.4277C25.1791 21.4277 26.0416 20.5652 26.0416 19.5111V14.7194C26.0416 13.6652 25.1791 12.8027 24.1249 12.8027H18.3749V13.7611C18.3749 15.8694 16.6499 17.5944 14.5416 17.5944V19.5111C14.5416 20.5652 15.4041 21.4277 16.4583 21.4277H18.3749V24.3027L21.2499 21.4277H24.1249Z" fill="#3D5441"/>
</svg>
