<svg width="32" height="32" viewBox="0 0 32 32" fill="none" xmlns="http://www.w3.org/2000/svg">
<rect width="31.3559" height="31.3559" rx="5.01695" fill="white"/>
<path d="M10.005 8.17773H9.992C9.93164 8.17901 9.87201 8.19121 9.816 8.21373C9.73501 8.2458 9.6638 8.29847 9.60942 8.36652C9.55505 8.43458 9.5194 8.51566 9.506 8.60173C9.49 8.69573 9 11.7727 9 13.1777C9 14.1277 9.442 14.9747 10.13 15.5227C10.38 15.7237 10.5 15.9417 10.5 16.1237V16.6237C10.5 16.6417 10.499 16.6597 10.497 16.6777C10.47 16.9377 10.346 18.1067 10.229 19.3087C10.114 20.4937 10 21.7587 10 22.1777C10 22.7082 10.2107 23.2169 10.5858 23.5919C10.9609 23.967 11.4696 24.1777 12 24.1777C12.5304 24.1777 13.0391 23.967 13.4142 23.5919C13.7893 23.2169 14 22.7082 14 22.1777C14 21.7577 13.886 20.4937 13.771 19.3087C13.6855 18.4317 13.5962 17.555 13.503 16.6787L13.5 16.6237V16.1237C13.5 15.9407 13.62 15.7237 13.87 15.5227C14.2224 15.2418 14.507 14.8851 14.7026 14.4792C14.8982 14.0732 14.9999 13.6284 15 13.1777C15 11.7697 14.507 8.67873 14.494 8.60073C14.4793 8.50675 14.4381 8.41891 14.3752 8.34753C14.3123 8.27614 14.2304 8.22418 14.139 8.19773C14.0971 8.18546 14.0537 8.17874 14.01 8.17773H13.99H13.991C13.8578 8.17879 13.7303 8.23246 13.6365 8.32705C13.5427 8.42164 13.49 8.54949 13.49 8.68273V12.6827C13.4914 12.7477 13.4799 12.8124 13.4563 12.873C13.4327 12.9335 13.3974 12.9889 13.3524 13.0358C13.3075 13.0828 13.2537 13.1204 13.1941 13.1465C13.1346 13.1727 13.0705 13.1869 13.0055 13.1882C12.9405 13.1896 12.8759 13.1782 12.8153 13.1546C12.7547 13.131 12.6993 13.0957 12.6524 13.0507C12.6055 13.0057 12.5678 12.9519 12.5417 12.8924C12.5155 12.8328 12.5014 12.7687 12.5 12.7037V8.67773C12.5 8.54513 12.4473 8.41795 12.3536 8.32418C12.2598 8.23041 12.1326 8.17773 12 8.17773C11.8674 8.17773 11.7402 8.23041 11.6464 8.32418C11.5527 8.41795 11.5 8.54513 11.5 8.67773V12.6777L11.501 12.7097C11.4974 12.841 11.4418 12.9655 11.3465 13.0558C11.2511 13.1461 11.1238 13.1948 10.9925 13.1912C10.8612 13.1877 10.7367 13.1321 10.6464 13.0367C10.5561 12.9413 10.5074 12.814 10.511 12.6827V8.68373C10.511 8.54971 10.4578 8.42116 10.3631 8.32629C10.2685 8.23143 10.139 8.178 10.005 8.17773ZM16.5 12.6777C16.5 11.4843 16.9741 10.3397 17.818 9.49575C18.6619 8.65184 19.8065 8.17773 21 8.17773C21.1326 8.17773 21.2598 8.23041 21.3536 8.32418C21.4473 8.41795 21.5 8.54513 21.5 8.67773V15.6557L21.52 15.8797C21.5979 16.7782 21.6739 17.6769 21.748 18.5757C21.872 20.0827 22 21.7367 22 22.1777C22 22.7082 21.7893 23.2169 21.4142 23.5919C21.0391 23.967 20.5304 24.1777 20 24.1777C19.4696 24.1777 18.9609 23.967 18.5858 23.5919C18.2107 23.2169 18 22.7082 18 22.1777C18 21.7377 18.128 20.0827 18.252 18.5757C18.314 17.8147 18.377 17.0787 18.424 16.5337L18.454 16.1777H18C17.6022 16.1777 17.2206 16.0197 16.9393 15.7384C16.658 15.4571 16.5 15.0756 16.5 14.6777V12.6777Z" fill="#3D5441"/>
</svg>
