<svg width="31" height="31" viewBox="0 0 31 31" fill="none" xmlns="http://www.w3.org/2000/svg">
<rect width="31" height="31" rx="4.9875" fill="#3D5441"/>
<g clip-path="url(#clip0_2075_649)">
<path fill-rule="evenodd" clip-rule="evenodd" d="M18.3333 7.53125C18.1604 7.53125 17.9957 7.5329 17.8392 7.53621C16.2713 7.56738 15.0739 8.59198 14.7211 10.0104C14.192 10.0114 13.7009 10.0181 13.2478 10.0306C11.7858 10.0706 10.5129 10.5845 9.54213 11.4271H9.52973C8.84194 11.4271 8.2395 10.8477 8.2395 10.1744C8.2395 9.50113 8.84194 8.92171 9.52973 8.92171H9.54C10.2639 8.92525 10.3645 9.27446 10.3645 9.36335C10.3645 9.50425 10.4205 9.63938 10.5201 9.739C10.6197 9.83863 10.7549 9.8946 10.8958 9.8946C11.0366 9.8946 11.1718 9.83863 11.2714 9.739C11.371 9.63938 11.427 9.50425 11.427 9.36335C11.427 8.47971 10.6177 7.85921 9.52973 7.85921H9.51663C8.28519 7.86629 7.177 8.88204 7.177 10.1744C7.177 11.1717 7.83681 12.004 8.70381 12.3355C7.96219 13.3417 7.53719 14.6128 7.53152 16.0153C7.53099 16.144 7.53099 16.2727 7.53152 16.4014C7.53719 17.7837 7.94909 19.0441 8.68115 20.0507C8.51787 20.414 8.35966 20.7795 8.20656 21.1472C7.94696 21.7698 8.11271 22.5104 8.67548 22.9357C8.82919 23.0519 9.00486 23.1766 9.16352 23.2676C9.32538 23.3604 9.52761 23.4507 9.71 23.5258C10.3532 23.7914 11.0672 23.5683 11.4755 23.042C11.6476 22.8199 11.8559 22.5472 12.0783 22.2465C12.454 22.3282 12.8438 22.3747 13.2478 22.3861C13.7216 22.3992 14.2352 22.4063 14.7916 22.4063C15.348 22.4063 15.8615 22.3992 16.3354 22.3861C16.7287 22.3757 17.1202 22.329 17.5049 22.2465C17.7273 22.5476 17.9355 22.8203 18.1076 23.042C18.516 23.5683 19.23 23.791 19.8732 23.5258C20.0605 23.4508 20.2432 23.3645 20.42 23.2672C20.5787 23.1766 20.754 23.0519 20.9077 22.9357C21.4708 22.5104 21.6362 21.7698 21.377 21.1472C21.2495 20.8426 21.0865 20.4608 20.902 20.0507C21.2481 19.5732 21.5203 19.0463 21.7095 18.4878C21.8196 18.4958 21.9279 18.5018 22.0346 18.5058C22.789 18.5327 23.3677 17.9569 23.4216 17.2436C23.4478 16.8997 23.4687 16.4407 23.4687 15.8542C23.4687 15.2677 23.4474 14.8087 23.4216 14.4648C23.3677 13.7511 22.789 13.1756 22.0346 13.2025C21.8384 13.2096 21.6351 13.2241 21.4287 13.245C20.9389 12.2356 20.1792 11.4023 19.2187 10.8363C19.2151 9.77737 19.1259 9.05169 19.031 8.57817C18.9959 8.39563 18.9497 8.21538 18.8928 8.03842C18.87 7.96959 18.8436 7.90197 18.8139 7.83583L18.811 7.82981L18.8096 7.82733L18.8089 7.82592L18.8085 7.82485C18.7644 7.7366 18.6966 7.66239 18.6126 7.61053C18.5287 7.55867 18.4319 7.53122 18.3333 7.53125ZM17.9791 12.7552C18.3212 12.7552 18.5989 13.0329 18.5989 13.375V13.7292C18.5989 13.8935 18.5336 14.0512 18.4173 14.1674C18.3011 14.2837 18.1435 14.349 17.9791 14.349C17.8147 14.349 17.6571 14.2837 17.5408 14.1674C17.4246 14.0512 17.3593 13.8935 17.3593 13.7292V13.375C17.3593 13.0329 17.637 12.7552 17.9791 12.7552ZM13.8895 12.401C14.0304 12.3993 14.1649 12.3417 14.2633 12.2408C14.3617 12.14 14.416 12.0041 14.4142 11.8632C14.4125 11.7223 14.3548 11.5879 14.254 11.4895C14.1531 11.3911 14.0173 11.3368 13.8764 11.3385C13.6951 11.3409 13.521 11.3442 13.354 11.3485C12.1824 11.3786 11.161 11.8202 10.4307 12.5544C10.3801 12.6035 10.3398 12.6622 10.3121 12.7271C10.2844 12.792 10.27 12.8617 10.2695 12.9323C10.2691 13.0028 10.2827 13.0727 10.3096 13.1379C10.3364 13.2031 10.376 13.2624 10.426 13.3121C10.476 13.3619 10.5354 13.4012 10.6007 13.4277C10.6661 13.4543 10.7361 13.4676 10.8066 13.4668C10.8771 13.466 10.9468 13.4512 11.0115 13.4232C11.0763 13.3953 11.1348 13.3547 11.1837 13.3038C11.7096 12.775 12.4658 12.4343 13.3816 12.4106C13.5434 12.4064 13.7127 12.4032 13.8895 12.401Z" fill="white"/>
</g>
<defs>
<clipPath id="clip0_2075_649">
<rect width="17" height="17" fill="white" transform="translate(7 7)"/>
</clipPath>
</defs>
</svg>
