<svg width="31" height="31" viewBox="0 0 31 31" fill="none" xmlns="http://www.w3.org/2000/svg">
<rect width="31" height="31" rx="4.9875" fill="#3D5441"/>
<path d="M20.4167 8.91699L7.91675 21.417L9.58341 23.0837L22.0834 10.5837M10.8334 9.33366C10.1704 9.33366 9.53449 9.59705 9.06565 10.0659C8.59681 10.5347 8.33341 11.1706 8.33341 11.8337C8.33341 12.4967 8.59681 13.1326 9.06565 13.6014C9.53449 14.0703 10.1704 14.3337 10.8334 14.3337C11.4965 14.3337 12.1323 14.0703 12.6012 13.6014C13.07 13.1326 13.3334 12.4967 13.3334 11.8337C13.3334 11.1706 13.07 10.5347 12.6012 10.0659C12.1323 9.59705 11.4965 9.33366 10.8334 9.33366ZM19.1667 17.667C18.5037 17.667 17.8678 17.9304 17.399 18.3992C16.9301 18.8681 16.6667 19.504 16.6667 20.167C16.6667 20.83 16.9301 21.4659 17.399 21.9348C17.8678 22.4036 18.5037 22.667 19.1667 22.667C19.8298 22.667 20.4657 22.4036 20.9345 21.9348C21.4034 21.4659 21.6667 20.83 21.6667 20.167C21.6667 19.504 21.4034 18.8681 20.9345 18.3992C20.4657 17.9304 19.8298 17.667 19.1667 17.667Z" fill="white"/>
</svg>
