<svg width="25" height="25" viewBox="0 0 25 25" fill="none" xmlns="http://www.w3.org/2000/svg">
<rect x="0.25" y="0.25" width="24.5" height="24.5" rx="3.75" fill="#3D5441"/>
<rect x="0.25" y="0.25" width="24.5" height="24.5" rx="3.75" stroke="white" stroke-width="0.5"/>
<path d="M18.5 8.75H16.625V8.125C16.625 7.78125 16.3438 7.5 16 7.5H7.875C7.53125 7.5 7.25 7.78125 7.25 8.125V15.625C7.25 16.6562 8.09375 17.5 9.125 17.5H14.75C15.7812 17.5 16.625 16.6562 16.625 15.625V14.375H18.5C19.1875 14.375 19.75 13.8125 19.75 13.125V10C19.75 9.3125 19.1875 8.75 18.5 8.75ZM16.625 13.125V10H18.5V13.125H16.625Z" fill="white"/>
</svg>
