<svg width="25" height="25" viewBox="0 0 25 25" fill="none" xmlns="http://www.w3.org/2000/svg">
<rect x="0.25" y="0.25" width="24.5" height="24.5" rx="3.75" fill="#3D5441"/>
<rect x="0.25" y="0.25" width="24.5" height="24.5" rx="3.75" stroke="white" stroke-width="0.5"/>
<path d="M10.7292 18.875C10.2234 18.875 9.80196 18.7064 9.46479 18.3692C9.12715 18.0311 8.95833 17.6094 8.95833 17.1042C8.95833 16.8888 8.94818 16.7084 8.92787 16.563C8.90757 16.4176 8.85681 16.3047 8.77558 16.2244C8.69531 16.1432 8.58244 16.0879 8.437 16.0587C8.29156 16.0294 8.11117 16.0145 7.89583 16.014C7.39008 16.014 6.96862 15.8499 6.63146 15.5218C6.29382 15.1936 6.125 14.7766 6.125 14.2708C6.125 13.7651 6.29382 13.3436 6.63146 13.0065C6.9691 12.6693 7.39056 12.5005 7.89583 12.5C8.08567 12.5 8.26558 12.5241 8.43558 12.5722C8.60558 12.6204 8.74985 12.6927 8.86838 12.789C8.99588 12.8886 9.14344 12.9385 9.31108 12.9385C9.47872 12.9385 9.62181 12.8794 9.74033 12.7614L12.7068 9.79487C12.8249 9.67682 12.8931 9.52689 12.9115 9.34508C12.93 9.16328 12.8891 9.00437 12.789 8.86838C12.7016 8.7404 12.6315 8.59378 12.5786 8.4285C12.5257 8.26322 12.4995 8.08567 12.5 7.89583C12.5 7.39008 12.6688 6.96862 13.0065 6.63146C13.3436 6.29382 13.7651 6.125 14.2708 6.125C14.7766 6.125 15.1983 6.29382 15.5359 6.63146C15.8736 6.9691 16.0421 7.39056 16.0417 7.89583C16.0417 8.11117 16.0518 8.29156 16.0721 8.437C16.0924 8.58244 16.1432 8.69531 16.2244 8.77558C16.3047 8.85681 16.4178 8.90757 16.5637 8.92787C16.7096 8.94818 16.8898 8.95833 17.1042 8.95833C17.6099 8.95833 18.0316 9.12715 18.3692 9.46479C18.7064 9.80196 18.875 10.2234 18.875 10.7292C18.875 11.2349 18.7064 11.6566 18.3692 11.9942C18.0321 12.3319 17.6104 12.5005 17.1042 12.5C16.9143 12.5 16.7368 12.4738 16.5715 12.4214C16.4062 12.369 16.2596 12.2988 16.1316 12.211C15.9956 12.1203 15.8412 12.0818 15.6684 12.0955C15.496 12.1092 15.3508 12.1751 15.2327 12.2932L12.2932 15.2327C12.1751 15.3508 12.1069 15.4892 12.0885 15.6478C12.07 15.8065 12.1019 15.9588 12.1841 16.1047C12.262 16.2322 12.3342 16.3833 12.4008 16.558C12.4669 16.7323 12.5 16.9143 12.5 17.1042C12.5 17.6099 12.3314 18.0316 11.9942 18.3692C11.6561 18.7064 11.2344 18.875 10.7292 18.875Z" fill="white"/>
</svg>
