<svg width="25" height="25" viewBox="0 0 25 25" fill="none" xmlns="http://www.w3.org/2000/svg">
<rect x="0.25" y="0.25" width="24.5" height="24.5" rx="3.75" fill="#3D5441"/>
<rect x="0.25" y="0.25" width="24.5" height="24.5" rx="3.75" stroke="white" stroke-width="0.5"/>
<path fill-rule="evenodd" clip-rule="evenodd" d="M10.348 17.0823C8.26337 15.485 5.41658 12.8464 5.41658 10.3517C5.41658 6.18386 9.31241 4.62765 12.4999 7.84632C15.6874 4.62765 19.5832 6.18386 19.5832 10.3517C19.5832 12.8464 16.7357 15.485 14.6518 17.0823C13.7083 17.8048 13.2366 18.1667 12.4999 18.1667C11.7632 18.1667 11.2915 17.8055 10.348 17.0823ZM15.6874 8.42715C15.8283 8.42715 15.9634 8.48312 16.0631 8.58275C16.1627 8.68238 16.2187 8.81751 16.2187 8.9584V9.84382H17.1041C17.245 9.84382 17.3801 9.89979 17.4797 9.99942C17.5794 10.099 17.6353 10.2342 17.6353 10.3751C17.6353 10.516 17.5794 10.6511 17.4797 10.7507C17.3801 10.8503 17.245 10.9063 17.1041 10.9063H16.2187V11.7917C16.2187 11.9326 16.1627 12.0678 16.0631 12.1674C15.9634 12.267 15.8283 12.323 15.6874 12.323C15.5465 12.323 15.4114 12.267 15.3118 12.1674C15.2121 12.0678 15.1562 11.9326 15.1562 11.7917V10.9063H14.2707C14.1299 10.9063 13.9947 10.8503 13.8951 10.7507C13.7955 10.6511 13.7395 10.516 13.7395 10.3751C13.7395 10.2342 13.7955 10.099 13.8951 9.99942C13.9947 9.89979 14.1299 9.84382 14.2707 9.84382H15.1562V8.9584C15.1562 8.81751 15.2121 8.68238 15.3118 8.58275C15.4114 8.48312 15.5465 8.42715 15.6874 8.42715Z" fill="white"/>
</svg>
