<svg width="25" height="25" viewBox="0 0 25 25" fill="none" xmlns="http://www.w3.org/2000/svg">
<rect x="0.25" y="0.25" width="24.5" height="24.5" rx="3.75" fill="#3D5441"/>
<rect x="0.25" y="0.25" width="24.5" height="24.5" rx="3.75" stroke="white" stroke-width="0.5"/>
<path d="M17 9.66699C17 9.84166 16.9889 10.0137 16.9666 10.183C17.8404 10.6737 18.4981 11.4746 18.8096 12.4271C19.1211 13.3796 19.0638 14.4143 18.6489 15.3265C18.234 16.2387 17.4919 16.962 16.5692 17.3532C15.6466 17.7444 14.6108 17.775 13.6666 17.439V19.667H12.3333V17.267C11.5648 17.6596 10.6824 17.7686 9.84142 17.5747C9.00047 17.3808 8.25486 16.8965 7.73581 16.207C7.21677 15.5175 6.95756 14.667 7.00381 13.8053C7.05005 12.9435 7.39879 12.1256 7.98864 11.4957C8.24915 12.2089 8.65895 12.8582 9.19064 13.4003L10.1426 12.467C9.41001 11.7192 8.99977 10.7139 8.99997 9.66699C8.99997 8.60613 9.4214 7.58871 10.1715 6.83857C10.9217 6.08842 11.9391 5.66699 13 5.66699C14.0608 5.66699 15.0783 6.08842 15.8284 6.83857C16.5785 7.58871 17 8.60613 17 9.66699Z" fill="white"/>
</svg>
