<svg width="25" height="25" viewBox="0 0 25 25" fill="none" xmlns="http://www.w3.org/2000/svg">
<rect x="0.25" y="0.25" width="24.5" height="24.5" rx="3.75" fill="#3D5441"/>
<rect x="0.25" y="0.25" width="24.5" height="24.5" rx="3.75" stroke="white" stroke-width="0.5"/>
<path fill-rule="evenodd" clip-rule="evenodd" d="M12.2939 8.1631C10.9812 6.53396 8.63617 6.4359 7.20639 7.95037C6.20467 9.01142 5.94425 10.5603 6.4251 11.875H8.98826L10.6251 8.60246L12.5001 12.3519L13.4376 10.4775L14.1364 11.875H18.5752C19.056 10.5603 18.7956 9.01142 17.7939 7.95037C16.3641 6.43593 14.0191 6.53396 12.7064 8.1631L12.5002 8.41912L12.2939 8.1631ZM17.8105 13.125H13.5114L12.5001 15.1475L10.6251 11.3975L9.7614 13.125H7.18984C7.19533 13.1309 7.20084 13.1368 7.20639 13.1427L12.4975 18.7472L12.5001 18.75H12.5001L17.7939 13.1427C17.7994 13.1368 17.8049 13.1309 17.8105 13.125" fill="white"/>
</svg>
