<svg width="25" height="25" viewBox="0 0 25 25" fill="none" xmlns="http://www.w3.org/2000/svg">
<rect x="0.25" y="0.25" width="24.5" height="24.5" rx="3.75" fill="#3D5441"/>
<rect x="0.25" y="0.25" width="24.5" height="24.5" rx="3.75" stroke="white" stroke-width="0.5"/>
<path d="M17.4413 8.26566C17.712 8.59232 17.9447 8.95166 18.132 9.33632C18.0198 9.55563 17.8645 9.75007 17.6754 9.90802C17.4863 10.066 17.2674 10.1842 17.0316 10.2556C16.7958 10.3271 16.5481 10.3503 16.3031 10.3238C16.0582 10.2973 15.8211 10.2218 15.606 10.1017L17.4413 8.26566ZM16.7347 7.55899L14.8987 9.39366C14.7785 9.17861 14.7029 8.94155 14.6764 8.69665C14.6499 8.45174 14.673 8.204 14.7444 7.96822C14.8158 7.73245 14.9339 7.51348 15.0918 7.32439C15.2497 7.13529 15.4441 6.97996 15.6633 6.86766C16.0468 7.05422 16.4065 7.2861 16.7347 7.55832M18.6667 11.667C18.6667 11.257 18.62 10.8577 18.5327 10.4737C18.2688 10.7461 17.9528 10.9626 17.6034 11.1104C17.2541 11.2581 16.8786 11.3341 16.4993 11.3337C15.9207 11.3345 15.3558 11.1574 14.8813 10.8263L14.374 11.3337L17.7287 14.6883C18.3412 13.8 18.6685 12.746 18.6667 11.667ZM13.6667 8.50032C13.6667 7.70299 13.996 6.98232 14.5267 6.46699C13.8065 6.30309 13.0603 6.28996 12.3348 6.42844C11.6094 6.56693 10.9205 6.85401 10.3113 7.27166L13.6667 10.6263L14.174 10.119C13.8428 9.64429 13.6656 9.07916 13.6667 8.50032ZM13.6667 12.0403L17.084 15.4583C16.4139 16.122 15.5798 16.5961 14.6667 16.8323C14.6693 15.281 14.1143 13.7804 13.1027 12.6043L13.6667 12.0403ZM12.396 11.8977C11.2199 10.8861 9.71931 10.331 8.168 10.3337C8.40401 9.42064 8.87789 8.58652 9.54134 7.91632L12.96 11.3337L12.396 11.8977ZM6.83334 11.0003C6.43551 11.0003 6.05398 11.1584 5.77268 11.4397C5.49137 11.721 5.33334 12.1025 5.33334 12.5003V13.8337C5.33334 15.3808 5.94792 16.8645 7.04188 17.9584C8.13584 19.0524 9.61957 19.667 11.1667 19.667H12.5C12.8978 19.667 13.2794 19.509 13.5607 19.2277C13.842 18.9463 14 18.5648 14 18.167V16.8337C14 15.2866 13.3854 13.8028 12.2915 12.7089C11.1975 11.6149 9.71377 11.0003 8.16667 11.0003H6.83334ZM8.48 14.147C8.57375 14.0534 8.70084 14.0008 8.83334 14.0008C8.96584 14.0008 9.09292 14.0534 9.18667 14.147L10.8533 15.8137C10.9025 15.8594 10.9419 15.9146 10.9692 15.976C10.9965 16.0373 11.0112 16.1035 11.0124 16.1706C11.0136 16.2378 11.0012 16.3045 10.9761 16.3667C10.9509 16.429 10.9135 16.4855 10.866 16.533C10.8185 16.5805 10.762 16.6179 10.6997 16.6431C10.6375 16.6682 10.5708 16.6806 10.5037 16.6794C10.4365 16.6782 10.3703 16.6635 10.309 16.6362C10.2476 16.6089 10.1924 16.5694 10.1467 16.5203L8.48 14.8537C8.38637 14.7599 8.33378 14.6328 8.33378 14.5003C8.33378 14.3678 8.38637 14.2407 8.48 14.147Z" fill="white"/>
</svg>
