<svg width="25" height="25" viewBox="0 0 25 25" fill="none" xmlns="http://www.w3.org/2000/svg">
<rect x="0.25" y="0.25" width="24.5" height="24.5" rx="3.75" fill="#3D5441"/>
<rect x="0.25" y="0.25" width="24.5" height="24.5" rx="3.75" stroke="white" stroke-width="0.5"/>
<path d="M16.75 13.9166C17.0192 13.9166 17.26 13.7679 17.3804 13.527C17.5008 13.2862 17.4725 13.0029 17.3167 12.7833L16.0417 11.0833C16.1771 11.0836 16.3099 11.0451 16.4241 10.9723C16.5384 10.8995 16.6293 10.7954 16.6862 10.6725C16.8067 10.4245 16.7642 10.127 16.5871 9.92162L13.0454 5.67162C12.7762 5.34579 12.2237 5.34579 11.9546 5.67162L8.4129 9.92162C8.32669 10.0251 8.27178 10.1511 8.25461 10.2847C8.23744 10.4183 8.25874 10.5541 8.31599 10.676C8.37324 10.7979 8.46408 10.901 8.57785 10.9732C8.69162 11.0453 8.82361 11.0835 8.95832 11.0833L7.68332 12.7833C7.5204 12.9958 7.49915 13.2862 7.61957 13.527C7.67843 13.6439 7.76849 13.7421 7.87977 13.8109C7.99104 13.8796 8.11918 13.9162 8.24999 13.9166L6.97499 15.6166C6.81207 15.8291 6.79082 16.1195 6.91124 16.3604C6.9701 16.4772 7.06016 16.5754 7.17143 16.6442C7.28271 16.7129 7.41085 16.7496 7.54165 16.75H11.7917V19.5833H13.2083V16.75H17.4583C17.7275 16.75 17.9683 16.6012 18.0887 16.3604C18.2092 16.1195 18.1808 15.8362 18.025 15.6166L16.75 13.9166Z" fill="white"/>
</svg>
