<svg width="25" height="25" viewBox="0 0 25 25" fill="none" xmlns="http://www.w3.org/2000/svg">
<rect x="0.25" y="0.25" width="24.5" height="24.5" rx="3.75" fill="#3D5441"/>
<rect x="0.25" y="0.25" width="24.5" height="24.5" rx="3.75" stroke="white" stroke-width="0.5"/>
<path fill-rule="evenodd" clip-rule="evenodd" d="M7.34387 12.9004V14.9448C7.34387 15.2699 7.43606 15.5883 7.60974 15.8631C7.78343 16.1379 8.03149 16.3578 8.32512 16.4973L11.4501 17.981C11.6806 18.0905 11.9325 18.1473 12.1876 18.1473C12.4427 18.1473 12.6947 18.0905 12.9251 17.981L16.0501 16.4973C16.3438 16.3578 16.5918 16.1379 16.7655 15.8631C16.9392 15.5883 17.0314 15.2699 17.0314 14.9448V12.901L12.9845 14.9241C12.7371 15.0479 12.4643 15.1123 12.1876 15.1123C11.911 15.1123 11.6382 15.0479 11.3907 14.9241L7.34387 12.9004Z" fill="white"/>
<path fill-rule="evenodd" clip-rule="evenodd" d="M11.8102 7.16475C12.0477 7.046 12.3277 7.046 12.5652 7.16475L17.9764 9.87037C18.5983 10.181 18.5983 11.0685 17.9764 11.3797L12.5652 14.086C12.3277 14.2047 12.0477 14.2047 11.8102 14.086L6.3989 11.3797C5.77703 11.0685 5.77703 10.181 6.3989 9.87037L11.8102 7.16475Z" fill="white"/>
<path fill-rule="evenodd" clip-rule="evenodd" d="M17.394 10.1031C17.4495 9.99188 17.5469 9.90728 17.6649 9.86789C17.7828 9.82851 17.9115 9.83758 18.0227 9.89311L19.2727 10.5181C19.3505 10.5571 19.416 10.617 19.4617 10.691C19.5074 10.7651 19.5315 10.8504 19.5315 10.9375V13.125C19.5315 13.2493 19.4821 13.3685 19.3942 13.4564C19.3063 13.5443 19.187 13.5937 19.0627 13.5937C18.9384 13.5937 18.8192 13.5443 18.7313 13.4564C18.6434 13.3685 18.594 13.2493 18.594 13.125V11.2275L17.6034 10.7319C17.4921 10.6763 17.4075 10.5789 17.3681 10.461C17.3288 10.3431 17.3384 10.2143 17.394 10.1031Z" fill="white"/>
</svg>
