<svg width="25" height="25" viewBox="0 0 25 25" fill="none" xmlns="http://www.w3.org/2000/svg">
<rect x="0.25" y="0.25" width="24.5" height="24.5" rx="3.75" fill="#3D5441"/>
<rect x="0.25" y="0.25" width="24.5" height="24.5" rx="3.75" stroke="white" stroke-width="0.5"/>
<path d="M12.5 18.75C11.5208 18.625 10.6458 18.375 9.875 18C9.10417 17.625 8.45063 17.1354 7.91438 16.5312C7.37813 15.9271 6.96917 15.2267 6.6875 14.43C6.40583 13.6333 6.26521 12.7504 6.26563 11.7812C7.41146 11.8958 8.38021 12.1042 9.17188 12.4062C9.96354 12.7083 10.6069 13.1354 11.1019 13.6875C11.5969 14.2396 11.9535 14.9298 12.1719 15.7581C12.3902 16.5865 12.4996 17.5837 12.5 18.75ZM12.5 13.4844C12.2604 13.1198 11.935 12.7604 11.5238 12.4062C11.1125 12.0521 10.6358 11.7292 10.0938 11.4375C10.1563 11 10.2604 10.5469 10.4063 10.0781C10.5521 9.60938 10.7292 9.14854 10.9375 8.69563C11.1458 8.24271 11.3829 7.80771 11.6488 7.39062C11.9146 6.97354 12.1983 6.59333 12.5 6.25C12.8021 6.59375 13.086 6.97396 13.3519 7.39062C13.6177 7.80729 13.8546 8.24229 14.0625 8.69563C14.2704 9.14896 14.4475 9.60979 14.5938 10.0781C14.74 10.5465 14.8442 10.9996 14.9063 11.4375C14.3646 11.7188 13.8881 12.0365 13.4769 12.3906C13.0656 12.7448 12.74 13.1094 12.5 13.4844ZM13.75 18.5C13.7292 17.7708 13.6746 17.0962 13.5863 16.4762C13.4979 15.8562 13.3598 15.2704 13.1719 14.7188C13.6615 13.875 14.336 13.1875 15.1956 12.6562C16.0552 12.125 17.2348 11.8333 18.7344 11.7812C18.7448 13.4271 18.3046 14.8465 17.4138 16.0394C16.5229 17.2323 15.3017 18.0525 13.75 18.5Z" fill="white"/>
</svg>
