<svg width="25" height="25" viewBox="0 0 25 25" fill="none" xmlns="http://www.w3.org/2000/svg">
<rect x="0.25" y="0.25" width="24.5" height="24.5" rx="3.75" fill="#3D5441"/>
<rect x="0.25" y="0.25" width="24.5" height="24.5" rx="3.75" stroke="white" stroke-width="0.5"/>
<path d="M12.7844 6.44348L12.5 6.29785L12.2156 6.44348C11.5002 6.80888 10.8482 7.28684 10.2844 7.8591C11.1051 8.28603 11.8529 8.84042 12.5 9.5016C13.1469 8.84047 13.8945 8.28609 14.715 7.8591C14.1514 7.2869 13.4996 6.80894 12.7844 6.44348ZM11.6869 10.4591C10.5969 9.31014 9.1706 8.53639 7.61313 8.2491L6.875 8.11285V13.1254C6.87475 14.2543 7.21421 15.3572 7.84923 16.2906C8.48425 17.224 9.38545 17.9448 10.4356 18.3591C10.1463 17.4767 9.99923 16.5539 10 15.6254C10 13.6929 10.6256 11.9066 11.6869 10.4591ZM18.125 8.11348L17.3875 8.2491C13.895 8.89035 11.25 11.9485 11.25 15.6254C11.25 16.5854 11.4313 17.5047 11.7606 18.3504L11.9106 18.7347C12.1069 18.741 12.3038 18.7504 12.5 18.7504C13.9918 18.7504 15.4226 18.1577 16.4775 17.1028C17.5324 16.0479 18.125 14.6172 18.125 13.1254V8.11348Z" fill="white"/>
</svg>
