<svg width="25" height="25" viewBox="0 0 25 25" fill="none" xmlns="http://www.w3.org/2000/svg">
<rect x="0.25" y="0.25" width="24.5" height="24.5" rx="3.75" fill="#3D5441"/>
<rect x="0.25" y="0.25" width="24.5" height="24.5" rx="3.75" stroke="white" stroke-width="0.5"/>
<path d="M7.54172 17.4584V11.3016C7.54172 11.1203 7.58233 10.9486 7.66355 10.7866C7.74477 10.6247 7.85669 10.4913 7.9993 10.3864L11.8137 7.49783C12.0134 7.34531 12.2415 7.26904 12.4979 7.26904C12.7543 7.26904 12.9838 7.34531 13.1864 7.49783L17.0008 10.3857C17.1439 10.4905 17.2558 10.6242 17.3365 10.7866C17.4178 10.9486 17.4584 11.1203 17.4584 11.3016V17.4584C17.4584 17.6483 17.3878 17.8138 17.2466 17.955C17.1054 18.0962 16.9399 18.1668 16.7501 18.1668H14.3531C14.1906 18.1668 14.0546 18.112 13.9451 18.0024C13.8355 17.8924 13.7807 17.7564 13.7807 17.5944V14.2164C13.7807 14.0544 13.7259 13.9186 13.6164 13.8091C13.5064 13.6991 13.3704 13.644 13.2084 13.644H11.7917C11.6297 13.644 11.494 13.6991 11.3844 13.8091C11.2744 13.9186 11.2194 14.0544 11.2194 14.2164V17.5951C11.2194 17.7571 11.1646 17.8929 11.0551 18.0024C10.9455 18.112 10.8097 18.1668 10.6478 18.1668H8.25005C8.06022 18.1668 7.8947 18.0962 7.75351 17.955C7.61231 17.8138 7.54172 17.6483 7.54172 17.4584Z" fill="white"/>
</svg>
