<svg width="37" height="37" viewBox="0 0 37 37" fill="none" xmlns="http://www.w3.org/2000/svg">
<rect width="37" height="37" rx="3" fill="#3D5441"/>
<path fill-rule="evenodd" clip-rule="evenodd" d="M19.3183 13.9351C16.7018 13.7974 14.6599 15.62 14.2097 18.4726C13.8368 20.835 14.4979 23.7135 15.0633 23.8584C15.3032 23.9198 15.8803 23.4767 16.3002 23.0792C16.3792 23.0045 16.4986 22.9919 16.5911 23.0487C17.2457 23.4505 17.9868 23.7525 18.8038 23.7955C21.49 23.9369 23.8705 21.8265 24.0112 19.1297C24.1519 16.433 22.0045 14.0765 19.3183 13.9351ZM14.9367 27.6302C14.8354 27.5582 14.6958 27.5778 14.6109 27.6687C13.4761 28.8837 10.5719 29.7359 10.4388 28.0776C10.4388 26.7783 10.1481 25.6835 9.82807 24.478C9.43606 23.0016 9 21.3593 9 18.9724C9 13.2805 13.6501 9 19.1637 9C24.6772 9 29 13.4895 29 19.0277C29 24.5658 24.5396 28.9448 19.2158 28.9448C17.3271 28.9448 16.4105 28.6777 14.9367 27.6302Z" fill="white"/>
</svg>
