<svg width="37" height="37" viewBox="0 0 37 37" fill="none" xmlns="http://www.w3.org/2000/svg">
<rect width="37" height="37" rx="3" fill="#3D5441"/>
<path d="M26.1292 24.3533H24.0992C23.3315 24.3533 23.1002 23.7315 21.724 22.3544C20.5213 21.1953 20.0133 21.0512 19.7091 21.0512C19.2883 21.0512 19.1736 21.1668 19.1736 21.7459V23.5713C19.1736 24.0651 19.0134 24.3542 17.7235 24.3542C16.4722 24.2701 15.2586 23.89 14.183 23.245C13.1073 22.6001 12.2002 21.7088 11.5365 20.6446C9.96104 18.6828 8.86454 16.3807 8.33398 13.9211C8.33398 13.6169 8.44963 13.3411 9.02964 13.3411H11.0579C11.5792 13.3411 11.7669 13.5733 11.9715 14.1097C12.9563 17.008 14.6367 19.5291 15.319 19.5291C15.5805 19.5291 15.6944 19.4134 15.6944 18.7614V15.7759C15.6081 14.414 14.8849 14.2992 14.8849 13.8064C14.894 13.6764 14.9535 13.555 15.0507 13.4682C15.1478 13.3813 15.2751 13.3357 15.4053 13.3411H18.5935C19.0294 13.3411 19.1736 13.5582 19.1736 14.0795V18.1093C19.1736 18.5443 19.3604 18.6884 19.492 18.6884C19.7536 18.6884 19.9546 18.5443 20.4341 18.0657C21.4615 16.812 22.3011 15.4156 22.9267 13.9203C22.9904 13.7405 23.1114 13.5867 23.2709 13.4822C23.4305 13.3778 23.6198 13.3285 23.8101 13.342H25.8392C26.4477 13.342 26.5767 13.6463 26.4477 14.0804C25.7094 15.7335 24.7963 17.3028 23.7238 18.7614C23.5049 19.095 23.4178 19.2684 23.7238 19.6599C23.9248 19.9641 24.6365 20.5583 25.1142 21.1232C25.8098 21.8171 26.3872 22.6195 26.824 23.4984C26.9983 24.0642 26.7083 24.3533 26.1292 24.3533Z" fill="white"/>
</svg>
