<svg width="37" height="37" viewBox="0 0 37 37" fill="none" xmlns="http://www.w3.org/2000/svg">
<rect width="37" height="37" rx="3" fill="#3D5441"/>
<g clip-path="url(#clip0_2075_403)">
<path d="M21.0638 18.1109H13.2948V14.9983H21.0638C21.5176 14.9983 21.8332 15.0783 21.9915 15.2182C22.1499 15.3581 22.248 15.6174 22.248 15.9964V17.114C22.248 17.5133 22.1499 17.7726 21.9915 17.9125C21.8332 18.0524 21.5176 18.1121 21.0638 18.1121V18.1109ZM21.5968 12.0637H10V25.375H13.2948V21.0443H19.3668L22.248 25.375H25.9375L22.7609 21.024C23.932 20.8482 24.4579 20.4849 24.8916 19.886C25.3253 19.2871 25.5428 18.3297 25.5428 17.0519V16.0537C25.5428 15.2959 25.4636 14.697 25.3253 14.238C25.1871 13.779 24.9507 13.3798 24.6151 13.0212C24.2606 12.6817 23.8658 12.4426 23.3919 12.2824C22.9181 12.1426 22.326 12.0625 21.5968 12.0625V12.0637Z" fill="white"/>
<path d="M28.4688 12.0625C29.8668 12.0625 31 10.9292 31 9.53125C31 8.13328 29.8668 7 28.4688 7C27.0708 7 25.9375 8.13328 25.9375 9.53125C25.9375 10.9292 27.0708 12.0625 28.4688 12.0625Z" fill="white"/>
</g>
<defs>
<clipPath id="clip0_2075_403">
<rect width="21" height="18.375" fill="white" transform="translate(10 7)"/>
</clipPath>
</defs>
</svg>
