<svg width="37" height="37" viewBox="0 0 37 37" fill="none" xmlns="http://www.w3.org/2000/svg">
<rect width="37" height="37" rx="3" fill="#3D5441"/>
<path fill-rule="evenodd" clip-rule="evenodd" d="M25.9931 13.9085C26.1089 12.5569 24.7211 13.1136 24.7211 13.1136C23.6966 13.5499 22.64 13.993 21.572 14.4411C18.26 15.8305 14.8388 17.266 11.9243 18.6789C10.3439 19.275 11.2691 19.8712 11.2691 19.8712L13.7744 20.6664C14.9309 21.0243 15.5474 20.6266 15.5474 20.6266L20.9438 16.8504C22.871 15.4988 22.4084 16.6118 21.9458 17.0889L17.8988 21.0639C17.282 21.6205 17.5904 22.0975 17.8601 22.3361C18.6251 23.0301 20.5061 24.2998 21.3272 24.854C21.5408 24.9981 21.6827 25.0941 21.7148 25.1188C21.9074 25.2777 22.9481 25.9933 23.642 25.8343C24.3359 25.6751 24.413 24.7608 24.413 24.7608L25.3379 18.5197C25.4765 17.4363 25.6358 16.3949 25.763 15.563C25.883 14.7774 25.9745 14.1791 25.9931 13.9085Z" fill="white"/>
</svg>
